<svg width="278" height="266" viewBox="0 0 278 266" fill="none" xmlns="http://www.w3.org/2000/svg">
<rect x="114" y="185.5" width="47" height="8" fill="white"/>
<rect x="122" y="177.5" width="35" height="8" fill="white"/>
<path fill-rule="evenodd" clip-rule="evenodd" d="M72.9829 95H86.9829V107H110.983V95H128.983V107H130.983V121.5H158V127.5H166V143.5H181.016V153.5H188V164.49H188.033V174.49H180.033V165.5H176V155.5H166V177.5H158H152H114V169.5H104V166.5H91.9999V155H85.9829V143H72.9829V95Z" fill="#DFA46D"/>
<rect x="80.9829" y="132" width="40" height="20" fill="white"/>
<rect x="80.9829" y="135" width="40" height="17" fill="white"/>
<rect x="76.9829" y="83" width="8" height="8" fill="#724D50"/>
<rect x="84.9829" y="91" width="8" height="8" fill="#724D50"/>
<rect x="76.9829" y="91" width="8" height="8" fill="white"/>
<rect x="68.9829" y="91" width="8" height="8" fill="#724D50"/>
<rect x="116.983" y="83" width="8" height="8" fill="#724D50"/>
<rect x="124.983" y="91" width="8" height="8" fill="#724D50"/>
<rect x="116.983" y="91" width="8" height="8" fill="white"/>
<rect x="124.983" y="99" width="8" height="8" fill="#724D50"/>
<rect x="68.9829" y="99" width="8" height="8" fill="#724D50"/>
<rect x="108.983" y="91" width="8" height="8" fill="#724D50"/>
<rect x="120.983" y="139" width="8" height="8" fill="#724D50"/>
<rect x="128.983" y="139" width="8" height="8" fill="#724D50"/>
<rect x="72.9829" y="112" width="8" height="8" fill="#724D50"/>
<rect x="64.9829" y="107" width="8" height="8" fill="#724D50"/>
<rect x="128.983" y="115" width="8" height="8" fill="#724D50"/>
<rect x="64.9829" y="115" width="8" height="8" fill="#724D50"/>
<rect x="128.983" y="123" width="8" height="8" fill="#724D50"/>
<rect x="64.9829" y="123" width="8" height="8" fill="#724D50"/>
<rect x="128.983" y="131" width="8" height="8" fill="#724D50"/>
<rect x="142" y="113.5" width="8" height="8" fill="#724D50"/>
<rect x="134" y="113.5" width="8" height="8" fill="#724D50"/>
<rect x="150" y="113.5" width="8" height="8" fill="#724D50"/>
<rect x="158" y="121.5" width="8" height="8" fill="#724D50"/>
<rect x="166" y="129.5" width="8" height="8" fill="#724D50"/>
<rect x="86.9829" y="152" width="28" height="8" fill="#724D50"/>
<rect x="114.983" y="147" width="8" height="8" fill="#724D50"/>
<rect x="166" y="137.5" width="8" height="8" fill="#724D50"/>
<rect x="174" y="137.5" width="8" height="8" fill="#724D50"/>
<rect x="188.033" y="166.49" width="8" height="8" fill="#724D50"/>
<rect width="8" height="8" transform="matrix(1 0 0 -1 187.017 198.49)" fill="#724D50"/>
<rect width="8" height="8" transform="matrix(1 0 0 -1 195.017 198.49)" fill="#724D50"/>
<rect x="192" y="174.49" width="8" height="8" fill="#724D50"/>
<rect width="8" height="8" transform="matrix(1 0 0 -1 198.033 190.49)" fill="#724D50"/>
<rect x="179.017" y="182.49" width="8" height="8" fill="#724D50"/>
<rect x="174" y="137.5" width="10.456" height="8" fill="#724D50"/>
<rect x="181.017" y="145.5" width="10.456" height="8" fill="#724D50"/>
<rect x="196.033" y="145.5" width="20.9902" height="8" transform="rotate(90 196.033 145.5)" fill="#724D50"/>
<rect x="168" y="161.5" width="8" height="8" fill="#724D50"/>
<rect x="172" y="164.457" width="8" height="18.0331" fill="#724D50"/>
<rect x="148" y="173.748" width="8.99999" height="9.00017" transform="rotate(-180 148 173.748)" fill="#724D50"/>
<rect x="148" y="164.748" width="8.99999" height="9.00017" transform="rotate(-180 148 164.748)" fill="white"/>
<rect x="157" y="164.748" width="8.99999" height="9.00017" transform="rotate(-180 157 164.748)" fill="#724D50"/>
<rect x="157" y="173.748" width="8.99999" height="9.00017" transform="rotate(-180 157 173.748)" fill="#724D50"/>
<rect x="86" y="153.5" width="8" height="8" fill="#724D50"/>
<rect x="90" y="161.5" width="8" height="8" fill="#724D50"/>
<rect x="166" y="153.5" width="10" height="8" fill="#724D50"/>
<rect x="162" y="161.5" width="8" height="8" fill="#724D50"/>
<rect x="162" y="169.5" width="8" height="8" fill="#724D50"/>
<rect x="162" y="177.5" width="8" height="8" fill="#724D50"/>
<rect x="154" y="177.5" width="8" height="8" fill="#724D50"/>
<rect x="154" y="185.5" width="8" height="8" fill="#724D50"/>
<rect x="138" y="177.5" width="8" height="8" fill="#724D50"/>
<rect x="130" y="185.5" width="8" height="8" fill="#724D50"/>
<rect x="114" y="177.5" width="8" height="8" fill="#724D50"/>
<rect x="106" y="185.5" width="8" height="8" fill="#724D50"/>
<rect x="106" y="193.5" width="56" height="6" fill="#724D50"/>
<rect x="130" y="177.5" width="8" height="8" fill="#724D50"/>
<rect x="98" y="161.5" width="8" height="8" fill="#724D50"/>
<rect x="106" y="169.5" width="8" height="8" fill="#724D50"/>
<rect x="98" y="169.5" width="8" height="8" fill="#724D50"/>
<rect x="64.9829" y="131" width="8" height="8" fill="#724D50"/>
<rect x="69.9829" y="139" width="11" height="8" fill="#724D50"/>
<rect x="94.9829" y="99" width="10" height="8" fill="#724D50"/>
<rect x="104.983" y="99" width="8" height="8" fill="#724D50"/>
<rect x="121.043" y="112" width="8" height="8" fill="#724D50"/>
<rect x="128.983" y="107" width="8" height="8" fill="#724D50"/>
<rect x="112.983" y="120" width="8" height="4" fill="#724D50"/>
<rect x="120.983" y="120" width="8" height="4" fill="#724D50"/>
<rect x="72.9829" y="120" width="8" height="4" fill="#724D50"/>
<rect x="80.9829" y="120" width="8" height="4" fill="#724D50"/>
<rect x="88.9829" y="132" width="8" height="8" fill="#724D50"/>
<rect x="104.983" y="132" width="8" height="8" fill="#724D50"/>
<rect x="96.9829" y="129" width="8" height="8" fill="#724D50"/>
<rect x="86.9829" y="99" width="8" height="8" fill="#724D50"/>
<rect x="78.9829" y="147" width="8" height="8" fill="#724D50"/>
<rect x="82.9661" y="173.748" width="8.99999" height="9.00017" transform="rotate(-180 82.9661 173.748)" fill="#724D50"/>
<rect x="82.9661" y="164.748" width="8.99999" height="9.00017" transform="rotate(-180 82.9661 164.748)" fill="white"/>
<rect x="73.9661" y="173.748" width="8.99999" height="9.00017" transform="rotate(-180 73.9661 173.748)" fill="#724D50"/>
<rect x="73.9661" y="164.748" width="8.99999" height="9.00017" transform="rotate(-180 73.9661 164.748)" fill="#724D50"/>
<rect x="179.948" y="174.229" width="12.0853" height="8.26051" fill="white"/>
<rect x="187.017" y="182.49" width="11.0165" height="8.26051" fill="white"/>
<path fill-rule="evenodd" clip-rule="evenodd" d="M57 199.5L219 199.5V207.5L57 207.5V199.5Z" fill="white"/>
</svg>
