<svg width="278" height="266" viewBox="0 0 278 266" fill="none" xmlns="http://www.w3.org/2000/svg">
<path fill-rule="evenodd" clip-rule="evenodd" d="M57 199.5L219 199.5V207.5L57 207.5V199.5Z" fill="white"/>
<path fill-rule="evenodd" clip-rule="evenodd" d="M166.766 135.5H112.766V154.5H111.766V147.5H93.7661V159.5H69.7661V147.5H55.7661V195.5H68.7661V199.5H113.766V183.5H122.766V191.5H160.766H166.766H173.766V194.5H218.766V182.5H174.766V141.5H166.766V135.5Z" fill="#DFA46D"/>
<rect x="63.7661" y="183.5" width="40" height="16" fill="white"/>
<path d="M210.766 182.5H214.266H221.766V194.5H206.766V182.5H210.766Z" fill="white"/>
<rect x="59.7661" y="135.5" width="8" height="8" fill="#724D50"/>
<rect x="67.7661" y="143.5" width="8" height="8" fill="#724D50"/>
<rect x="59.7661" y="143.5" width="8" height="8" fill="white"/>
<rect x="51.7661" y="143.5" width="8" height="8" fill="#724D50"/>
<rect x="99.7661" y="135.5" width="8" height="8" fill="#724D50"/>
<rect x="107.766" y="135.5" width="8" height="8" fill="#724D50"/>
<rect x="107.766" y="143.5" width="8" height="8" fill="#724D50"/>
<rect x="99.7661" y="143.5" width="8" height="8" fill="white"/>
<rect x="107.766" y="151.5" width="8" height="8" fill="#724D50"/>
<rect x="51.7661" y="151.5" width="8" height="8" fill="#724D50"/>
<rect x="91.7661" y="143.5" width="8" height="8" fill="#724D50"/>
<rect x="103.766" y="191.5" width="8" height="8" fill="#724D50"/>
<rect x="111.766" y="191.5" width="8" height="8" fill="#724D50"/>
<rect x="55.7661" y="159.5" width="8" height="8" fill="#724D50"/>
<rect x="47.7661" y="159.5" width="8" height="8" fill="#724D50"/>
<rect x="111.766" y="167.5" width="8" height="8" fill="#724D50"/>
<rect x="47.7661" y="167.5" width="8" height="8" fill="#724D50"/>
<rect x="111.766" y="175.5" width="8" height="8" fill="#724D50"/>
<rect x="47.7661" y="175.5" width="8" height="8" fill="#724D50"/>
<rect x="112.766" y="127.5" width="30" height="8" fill="#724D50"/>
<rect x="111.766" y="183.5" width="8" height="8" fill="#724D50"/>
<rect x="150.766" y="127.5" width="8" height="8" fill="#724D50"/>
<rect x="142.766" y="127.5" width="8" height="8" fill="#724D50"/>
<rect x="158.766" y="127.5" width="8" height="8" fill="#724D50"/>
<rect x="166.766" y="135.5" width="8" height="8" fill="#724D50"/>
<rect x="174.766" y="143.5" width="8" height="8" fill="#724D50"/>
<rect x="97.7661" y="191.5" width="8" height="8" fill="#724D50"/>
<rect x="174.766" y="151.5" width="8" height="16" fill="#724D50"/>
<rect x="182.766" y="175.5" width="39" height="8" fill="#724D50"/>
<rect x="178.766" y="191.5" width="51" height="8" fill="#724D50"/>
<rect x="176.766" y="175.5" width="8" height="8" fill="#724D50"/>
<rect x="145.655" y="192.278" width="8.88889" height="8.88889" transform="rotate(-180 145.655 192.278)" fill="#724D50"/>
<rect x="145.655" y="183.389" width="8.88889" height="8.88889" transform="rotate(-180 145.655 183.389)" fill="#724D50"/>
<rect x="154.544" y="183.389" width="8.88889" height="8.88889" transform="rotate(-180 154.544 183.389)" fill="white"/>
<rect x="154.544" y="192.278" width="8.88889" height="8.88889" transform="rotate(-180 154.544 192.278)" fill="#724D50"/>
<rect x="174.766" y="167.5" width="13" height="8" fill="#724D50"/>
<rect x="170.766" y="175.5" width="8" height="8" fill="#724D50"/>
<rect x="170.766" y="191.5" width="8" height="8" fill="#724D50"/>
<rect x="162.766" y="191.5" width="8" height="8" fill="#724D50"/>
<rect x="162.766" y="191.5" width="8" height="8" fill="#724D50"/>
<rect x="146.766" y="191.5" width="8" height="8" fill="#724D50"/>
<rect x="138.766" y="191.5" width="8" height="8" fill="#724D50"/>
<rect x="122.766" y="191.5" width="8" height="8" fill="#724D50"/>
<rect x="114.766" y="191.5" width="8" height="8" fill="#724D50"/>
<rect x="114.766" y="191.5" width="56" height="8" fill="#724D50"/>
<rect x="138.766" y="191.5" width="8" height="8" fill="#724D50"/>
<rect x="114.766" y="183.5" width="8" height="8" fill="#724D50"/>
<rect x="47.7661" y="183.5" width="8" height="8" fill="#724D50"/>
<rect x="52.7661" y="191.5" width="11" height="8" fill="#724D50"/>
<rect x="77.7661" y="151.5" width="10" height="8" fill="#724D50"/>
<rect x="87.7661" y="151.5" width="8" height="8" fill="#724D50"/>
<rect x="103.826" y="159.5" width="8" height="8" fill="#724D50"/>
<rect x="111.766" y="159.5" width="8" height="8" fill="#724D50"/>
<rect x="71.7661" y="183.5" width="8" height="8" fill="#724D50"/>
<path d="M87.7661 183.5H95.7661V191.5H87.7661V183.5Z" fill="#724D50"/>
<rect x="79.7661" y="175.5" width="8" height="8" fill="#724D50"/>
<rect x="79.7661" y="183.5" width="8" height="16" fill="#EA394B"/>
<rect x="69.7661" y="151.5" width="8" height="8" fill="#724D50"/>
<path fill-rule="evenodd" clip-rule="evenodd" d="M86.7659 164.864L103.766 181.864L110.13 175.5L93.1299 158.5L86.7659 164.864Z" fill="black"/>
<path fill-rule="evenodd" clip-rule="evenodd" d="M54.7659 164.864L71.7659 181.864L78.1299 175.5L61.1299 158.5L54.7659 164.864Z" fill="black"/>
<path fill-rule="evenodd" clip-rule="evenodd" d="M110.766 164.864L93.7663 181.864L87.4023 175.5L104.402 158.5L110.766 164.864Z" fill="black"/>
<path fill-rule="evenodd" clip-rule="evenodd" d="M78.7663 164.864L61.7663 181.864L55.4023 175.5L72.4023 158.5L78.7663 164.864Z" fill="black"/>
<rect x="221.766" y="175.5" width="8" height="19" fill="#724D50"/>
<rect x="69.7661" y="191.5" width="10" height="8" fill="#724D50"/>
<rect x="87.7661" y="191.5" width="11" height="8" fill="#724D50"/>
<rect x="62.7661" y="191.5" width="8" height="8" fill="#724D50"/>
</svg>
