<svg width="278" height="266" viewBox="0 0 278 266" fill="none" xmlns="http://www.w3.org/2000/svg">
<rect x="114" y="185.5" width="47" height="8" fill="white"/>
<rect x="122" y="177.5" width="35" height="8" fill="white"/>
<path fill-rule="evenodd" clip-rule="evenodd" d="M70 81.5H84V93.5H108V81.5H126V93.5H128V121.5H158V127.5H166V143.5H182V133.5H190V128.5H198V138.5H194V145.5H190V155.5H166V177.5H158H152H114V169.5H104V166.5H92V141.5H83V133.5H74V129.5H70V81.5Z" fill="#DFA46D"/>
<rect x="78" y="117.5" width="40" height="21" fill="white"/>
<rect x="78" y="117.5" width="40" height="21" fill="white"/>
<path d="M190 129.5L193.5 123.5H201V145.5H186V134.5L190 129.5Z" fill="white"/>
<rect x="74" y="69.5" width="8" height="8" fill="#724D50"/>
<rect x="82" y="77.5" width="8" height="8" fill="#724D50"/>
<rect x="74" y="77.5" width="8" height="8" fill="white"/>
<rect x="66" y="77.5" width="8" height="8" fill="#724D50"/>
<rect x="114" y="69.5" width="8" height="8" fill="#724D50"/>
<rect x="122" y="77.5" width="8" height="8" fill="#724D50"/>
<rect x="114" y="77.5" width="8" height="8" fill="white"/>
<rect x="122" y="85.5" width="8" height="8" fill="#724D50"/>
<rect x="66" y="85.5" width="8" height="8" fill="#724D50"/>
<rect x="106" y="77.5" width="8" height="8" fill="#724D50"/>
<rect x="118" y="125.5" width="8" height="8" fill="#724D50"/>
<rect x="126" y="125.5" width="8" height="8" fill="#724D50"/>
<rect x="70" y="93.5" width="8" height="8" fill="#724D50"/>
<rect x="62" y="93.5" width="8" height="8" fill="#724D50"/>
<rect x="126" y="101.5" width="8" height="8" fill="#724D50"/>
<rect x="62" y="101.5" width="8" height="8" fill="#724D50"/>
<rect x="126" y="109.5" width="8" height="8" fill="#724D50"/>
<rect x="62" y="109.5" width="8" height="8" fill="#724D50"/>
<rect x="62" y="117.5" width="8" height="8" fill="#724D50"/>
<rect x="126" y="117.5" width="8" height="8" fill="#724D50"/>
<rect x="126" y="117.5" width="8" height="8" fill="#724D50"/>
<rect x="142" y="113.5" width="8" height="8" fill="#724D50"/>
<rect x="134" y="113.5" width="8" height="8" fill="#724D50"/>
<rect x="150" y="113.5" width="8" height="8" fill="#724D50"/>
<rect x="158" y="121.5" width="8" height="8" fill="#724D50"/>
<rect x="166" y="129.5" width="8" height="8" fill="#724D50"/>
<rect x="83" y="138.5" width="8" height="8" fill="#724D50"/>
<rect x="91" y="138.5" width="8" height="8" fill="#724D50"/>
<rect x="114" y="133.5" width="8" height="8" fill="#724D50"/>
<rect x="166" y="137.5" width="8" height="8" fill="#724D50"/>
<rect x="174" y="137.5" width="8" height="8" fill="#724D50"/>
<rect x="182" y="129.5" width="8" height="8" fill="#724D50"/>
<rect x="190" y="121.5" width="8" height="8" fill="#724D50"/>
<rect x="198" y="121.5" width="8" height="8" fill="#724D50"/>
<rect x="194" y="137.5" width="8" height="8" fill="#724D50"/>
<rect x="198" y="129.5" width="8" height="8" fill="#724D50"/>
<rect x="186" y="145.5" width="8" height="8" fill="#724D50"/>
<rect x="174" y="153.5" width="16" height="8" fill="#724D50"/>
<rect x="168" y="161.5" width="8" height="8" fill="#724D50"/>
<rect width="8.88889" height="8.88889" transform="matrix(1 -8.74228e-08 -8.74228e-08 -1 123.111 163.5)" fill="#724D50"/>
<rect width="8.88889" height="8.88889" transform="matrix(1 -8.74228e-08 -8.74228e-08 -1 123.111 154.611)" fill="#724D50"/>
<rect width="8.88889" height="8.88889" transform="matrix(1 -8.74228e-08 -8.74228e-08 -1 114.222 154.611)" fill="white"/>
<rect width="8.88889" height="8.88889" transform="matrix(1 -8.74228e-08 -8.74228e-08 -1 114.222 163.5)" fill="#724D50"/>
<rect x="79.7778" y="163.278" width="8.88889" height="8.88889" transform="rotate(-180 79.7778 163.278)" fill="#724D50"/>
<rect x="79.7778" y="154.389" width="8.88889" height="8.88889" transform="rotate(-180 79.7778 154.389)" fill="white"/>
<rect x="70.8889" y="163.278" width="8.88889" height="8.88889" transform="rotate(-180 70.8889 163.278)" fill="#724D50"/>
<rect x="70.8889" y="154.389" width="8.88889" height="8.88889" transform="rotate(-180 70.8889 154.389)" fill="#724D50"/>
<rect x="86" y="140.5" width="8" height="13" fill="#724D50"/>
<rect x="86" y="153.5" width="8" height="8" fill="#724D50"/>
<rect x="90" y="161.5" width="8" height="8" fill="#724D50"/>
<rect x="166" y="153.5" width="10" height="8" fill="#724D50"/>
<rect x="162" y="161.5" width="8" height="8" fill="#724D50"/>
<rect x="162" y="169.5" width="8" height="8" fill="#724D50"/>
<rect x="162" y="177.5" width="8" height="8" fill="#724D50"/>
<rect x="154" y="177.5" width="8" height="8" fill="#724D50"/>
<rect x="154" y="185.5" width="8" height="8" fill="#724D50"/>
<rect x="138" y="177.5" width="8" height="8" fill="#724D50"/>
<rect x="130" y="185.5" width="8" height="8" fill="#724D50"/>
<rect x="114" y="177.5" width="8" height="8" fill="#724D50"/>
<rect x="106" y="185.5" width="8" height="8" fill="#724D50"/>
<rect x="106" y="193.5" width="56" height="6" fill="#724D50"/>
<rect x="130" y="177.5" width="8" height="8" fill="#724D50"/>
<rect x="98" y="161.5" width="8" height="8" fill="#724D50"/>
<rect x="106" y="169.5" width="8" height="8" fill="#724D50"/>
<rect x="98" y="169.5" width="8" height="8" fill="#724D50"/>
<rect x="62" y="117.5" width="8" height="8" fill="#724D50"/>
<rect x="67" y="125.5" width="11" height="8" fill="#724D50"/>
<rect x="92" y="85.5" width="10" height="8" fill="#724D50"/>
<rect x="102" y="85.5" width="8" height="8" fill="#724D50"/>
<rect x="118.06" y="93.5" width="8" height="8" fill="#724D50"/>
<rect x="126" y="93.5" width="8" height="8" fill="#724D50"/>
<rect x="110" y="101.5" width="8" height="8" fill="#724D50"/>
<rect x="118" y="101.5" width="8" height="8" fill="#724D50"/>
<rect x="70" y="101.5" width="8" height="8" fill="#724D50"/>
<rect x="78" y="101.5" width="8" height="8" fill="#724D50"/>
<rect x="86" y="117.5" width="8" height="8" fill="#724D50"/>
<rect x="102" y="117.5" width="8" height="8" fill="#724D50"/>
<rect x="94" y="109.5" width="8" height="8" fill="#724D50"/>
<rect x="84" y="85.5" width="8" height="8" fill="#724D50"/>
<rect x="74" y="133.5" width="8" height="8" fill="#724D50"/>
<rect x="98.4624" y="142.268" width="2.92501" height="10.2375" transform="rotate(-90 98.4624 142.268)" fill="black"/>
<rect x="108.7" y="145.194" width="2.92501" height="2.92501" transform="rotate(-90 108.7 145.194)" fill="black"/>
<rect x="108.7" y="162.744" width="2.92501" height="2.92501" transform="rotate(-90 108.7 162.744)" fill="black"/>
<rect x="105.775" y="165.668" width="2.92501" height="2.92501" transform="rotate(-90 105.775 165.668)" fill="black"/>
<rect x="94.0747" y="165.668" width="2.92501" height="5.85002" transform="rotate(-90 94.0747 165.668)" fill="black"/>
<rect x="99.9253" y="168.593" width="2.92501" height="5.85002" transform="rotate(-90 99.9253 168.593)" fill="black"/>
<rect x="82.3752" y="145.194" width="2.92501" height="2.92501" transform="rotate(-90 82.3752 145.194)" fill="black"/>
<rect x="82.3752" y="162.744" width="2.92501" height="2.92501" transform="rotate(-90 82.3752 162.744)" fill="black"/>
<rect x="85.2997" y="165.668" width="2.92501" height="2.92501" transform="rotate(-90 85.2997 165.668)" fill="black"/>
<rect x="88.225" y="168.593" width="2.92501" height="5.85002" transform="rotate(-90 88.225 168.593)" fill="black"/>
<rect x="79.45" y="159.818" width="14.625" height="2.92501" transform="rotate(-90 79.45 159.818)" fill="black"/>
<rect x="111.625" y="159.818" width="14.625" height="2.92501" transform="rotate(-90 111.625 159.818)" fill="black"/>
<rect x="85.2997" y="142.268" width="2.92501" height="10.2375" transform="rotate(-90 85.2997 142.268)" fill="black"/>
<rect x="108.7" y="126.181" width="2.92501" height="5.85002" fill="black"/>
<rect x="101.387" y="129.105" width="2.92501" height="7.31252" transform="rotate(-90 101.387 129.105)" fill="black"/>
<rect x="98.4624" y="132.031" width="2.92501" height="2.92501" transform="rotate(-90 98.4624 132.031)" fill="black"/>
<rect x="95.5377" y="143.731" width="11.7" height="2.92501" transform="rotate(-90 95.5377 143.731)" fill="black"/>
<rect x="105.775" y="134.956" width="2.92501" height="2.92501" transform="rotate(-90 105.775 134.956)" fill="black"/>
<rect x="98.4624" y="137.88" width="2.92501" height="7.31252" transform="rotate(-90 98.4624 137.88)" fill="black"/>
<rect x="98.4624" y="134.956" width="2.92501" height="7.31252" transform="rotate(-90 98.4624 134.956)" fill="#BFE449"/>
<rect x="101.387" y="132.031" width="2.92501" height="7.31252" transform="rotate(-90 101.387 132.031)" fill="#BFE449"/>
<rect x="98.4624" y="142.268" width="10.2375" height="20.4751" fill="#EA394B"/>
<rect x="85.2997" y="142.268" width="10.2375" height="20.4751" fill="#EA394B"/>
<rect x="88.225" y="162.744" width="5.85002" height="2.92501" fill="#EA394B"/>
<rect x="94.0747" y="159.818" width="5.85002" height="2.92501" fill="#EA394B"/>
<rect x="99.9253" y="162.744" width="5.85002" height="2.92501" fill="#EA394B"/>
<rect x="111.625" y="145.194" width="14.6251" height="29.2501" transform="rotate(90 111.625 145.194)" fill="#EA394B"/>
<rect x="95.538" y="146.655" width="2.92501" height="2.92501" transform="rotate(-90 95.538 146.655)" fill="black"/>
<rect x="98.4624" y="145.194" width="2.92501" height="2.92501" transform="rotate(-90 98.4624 145.194)" fill="black"/>
<rect x="92.6127" y="145.194" width="2.92501" height="2.92501" transform="rotate(-90 92.6127 145.194)" fill="black"/>
<path fill-rule="evenodd" clip-rule="evenodd" d="M57 199.5L219 199.5V207.5L57 207.5V199.5Z" fill="white"/>
</svg>
