<svg width="278" height="266" viewBox="0 0 278 266" fill="none" xmlns="http://www.w3.org/2000/svg">
<rect x="114" y="185.5" width="47" height="8" fill="white"/>
<rect x="122" y="177.5" width="35" height="8" fill="white"/>
<path fill-rule="evenodd" clip-rule="evenodd" d="M70 81.5H84V93.5H108V81.5H126V93.5H128V121.5H158V127.5H166V143.5H182V133.5H190V128.5H198V138.5H194V145.5H190V155.5H166V177.5H158H152H114V169.5H104V166.5H92V141.5H83V133.5H74V129.5H70V81.5Z" fill="#DFA46D"/>
<rect x="78" y="117.5" width="40" height="21" fill="white"/>
<rect x="78" y="117.5" width="40" height="21" fill="white"/>
<path d="M190 129.5L193.5 123.5H201V145.5H186V134.5L190 129.5Z" fill="white"/>
<rect x="74" y="69.5" width="8" height="8" fill="#724D50"/>
<rect x="82" y="77.5" width="8" height="8" fill="#724D50"/>
<rect x="74" y="77.5" width="8" height="8" fill="white"/>
<rect x="66" y="77.5" width="8" height="8" fill="#724D50"/>
<rect x="114" y="69.5" width="8" height="8" fill="#724D50"/>
<rect x="122" y="77.5" width="8" height="8" fill="#724D50"/>
<rect x="114" y="77.5" width="8" height="8" fill="white"/>
<rect x="122" y="85.5" width="8" height="8" fill="#724D50"/>
<rect x="66" y="85.5" width="8" height="8" fill="#724D50"/>
<rect x="106" y="77.5" width="8" height="8" fill="#724D50"/>
<rect x="118" y="125.5" width="8" height="8" fill="#724D50"/>
<rect x="126" y="125.5" width="8" height="8" fill="#724D50"/>
<rect x="70" y="93.5" width="8" height="8" fill="#724D50"/>
<rect x="62" y="93.5" width="8" height="8" fill="#724D50"/>
<rect x="126" y="101.5" width="8" height="8" fill="#724D50"/>
<rect x="62" y="101.5" width="8" height="8" fill="#724D50"/>
<rect x="126" y="109.5" width="8" height="8" fill="#724D50"/>
<rect x="62" y="109.5" width="8" height="8" fill="#724D50"/>
<rect x="62" y="117.5" width="8" height="8" fill="#724D50"/>
<rect x="126" y="117.5" width="8" height="8" fill="#724D50"/>
<rect x="126" y="117.5" width="8" height="8" fill="#724D50"/>
<rect x="142" y="113.5" width="8" height="8" fill="#724D50"/>
<rect x="134" y="113.5" width="8" height="8" fill="#724D50"/>
<rect x="150" y="113.5" width="8" height="8" fill="#724D50"/>
<rect x="158" y="121.5" width="8" height="8" fill="#724D50"/>
<rect x="166" y="129.5" width="8" height="8" fill="#724D50"/>
<rect x="84" y="138.5" width="13" height="8" fill="#724D50"/>
<rect x="112" y="133.5" width="8" height="8" fill="#724D50"/>
<rect x="166" y="137.5" width="8" height="8" fill="#724D50"/>
<rect x="174" y="137.5" width="8" height="8" fill="#724D50"/>
<rect x="182" y="129.5" width="8" height="8" fill="#724D50"/>
<rect x="190" y="121.5" width="8" height="8" fill="#724D50"/>
<rect x="198" y="121.5" width="8" height="8" fill="#724D50"/>
<rect x="194" y="137.5" width="8" height="8" fill="#724D50"/>
<rect x="198" y="129.5" width="8" height="8" fill="#724D50"/>
<rect x="186" y="145.5" width="8" height="8" fill="#724D50"/>
<rect x="174" y="153.5" width="16" height="8" fill="#724D50"/>
<rect x="168" y="161.5" width="8" height="8" fill="#724D50"/>
<rect x="119.778" y="169.5" width="8.99999" height="9.00017" transform="rotate(-180 119.778 169.5)" fill="#724D50"/>
<rect x="119.778" y="160.5" width="8.99999" height="9.00017" transform="rotate(-180 119.778 160.5)" fill="#724D50"/>
<rect x="128.778" y="160.5" width="8.99999" height="9.00017" transform="rotate(-180 128.778 160.5)" fill="white"/>
<rect x="128.778" y="169.5" width="8.99999" height="9.00017" transform="rotate(-180 128.778 169.5)" fill="#724D50"/>
<rect x="86" y="140.5" width="8" height="13" fill="#724D50"/>
<rect x="86" y="153.5" width="8" height="8" fill="#724D50"/>
<rect x="90" y="161.5" width="8" height="8" fill="#724D50"/>
<rect x="166" y="153.5" width="10" height="8" fill="#724D50"/>
<rect x="162" y="161.5" width="8" height="8" fill="#724D50"/>
<rect x="162" y="169.5" width="8" height="8" fill="#724D50"/>
<rect x="162" y="177.5" width="8" height="8" fill="#724D50"/>
<rect x="154" y="177.5" width="8" height="8" fill="#724D50"/>
<rect x="154" y="185.5" width="8" height="8" fill="#724D50"/>
<rect x="138" y="177.5" width="8" height="8" fill="#724D50"/>
<rect x="130" y="185.5" width="8" height="8" fill="#724D50"/>
<rect x="114" y="177.5" width="8" height="8" fill="#724D50"/>
<rect x="106" y="185.5" width="8" height="8" fill="#724D50"/>
<rect x="106" y="193.5" width="56" height="6" fill="#724D50"/>
<rect x="130" y="177.5" width="8" height="8" fill="#724D50"/>
<rect x="98" y="161.5" width="8" height="8" fill="#724D50"/>
<rect x="106" y="169.5" width="8" height="8" fill="#724D50"/>
<rect x="98" y="169.5" width="8" height="8" fill="#724D50"/>
<rect x="62" y="117.5" width="8" height="8" fill="#724D50"/>
<rect x="67" y="125.5" width="11" height="8" fill="#724D50"/>
<rect x="92" y="85.5" width="10" height="8" fill="#724D50"/>
<rect x="102" y="85.5" width="8" height="8" fill="#724D50"/>
<rect x="118.06" y="93.5" width="8" height="8" fill="#724D50"/>
<rect x="126" y="93.5" width="8" height="8" fill="#724D50"/>
<rect x="110" y="101.5" width="8" height="8" fill="#724D50"/>
<rect x="118" y="101.5" width="8" height="8" fill="#724D50"/>
<rect x="70" y="101.5" width="8" height="8" fill="#724D50"/>
<rect x="78" y="101.5" width="8" height="8" fill="#724D50"/>
<rect x="86" y="117.5" width="8" height="8" fill="#724D50"/>
<rect x="102" y="117.5" width="8" height="8" fill="#724D50"/>
<rect x="94" y="109.5" width="8" height="8" fill="#724D50"/>
<rect x="84" y="85.5" width="8" height="8" fill="#724D50"/>
<rect x="76" y="133.5" width="8" height="8" fill="#724D50"/>
<rect x="107.778" y="169.5" width="8.99999" height="9.00017" transform="rotate(-180 107.778 169.5)" fill="#724D50"/>
<rect x="107.778" y="160.5" width="8.99999" height="9.00017" transform="rotate(-180 107.778 160.5)" fill="white"/>
<rect x="98.7778" y="169.5" width="8.99999" height="9.00017" transform="rotate(-180 98.7778 169.5)" fill="#724D50"/>
<rect x="98.7778" y="160.5" width="8.99999" height="9.00017" transform="rotate(-180 98.7778 160.5)" fill="#724D50"/>
<rect x="67" y="158.5" width="4" height="4" fill="black"/>
<rect x="67" y="171.5" width="4" height="4" fill="black"/>
<rect x="71" y="154.5" width="4" height="4" fill="black"/>
<rect x="71" y="167.5" width="4" height="4" fill="black"/>
<rect x="75" y="158.5" width="4" height="4" fill="black"/>
<rect x="75" y="171.5" width="4" height="4" fill="black"/>
<rect x="79" y="154.5" width="4" height="4" fill="black"/>
<rect x="79" y="167.5" width="4" height="4" fill="black"/>
<path fill-rule="evenodd" clip-rule="evenodd" d="M57 199.5L219 199.5V207.5L57 207.5V199.5Z" fill="white"/>
</svg>
