<svg width="279" height="266" viewBox="0 0 279 266" fill="none" xmlns="http://www.w3.org/2000/svg">
<rect x="126.003" y="185.5" width="47" height="8" fill="white"/>
<rect x="134.003" y="177.5" width="35" height="8" fill="white"/>
<path fill-rule="evenodd" clip-rule="evenodd" d="M82 81.5H96V93.5H120.003V81.5H138.003V93.5H140.003V121.5H170.003V127.5H178.003V143.5H194.003V133.5H202.003V128.5H210.003V138.5H206.003V145.5H202.003V155.5H178.003V177.5H170.003H164.003H126.003V169.5H116.003V166.5H104.003V141.5H95V133.5H86V129.5H82V81.5Z" fill="#DFA46D"/>
<rect x="90" y="117.5" width="40" height="21" fill="white"/>
<rect x="90" y="117.5" width="40" height="21" fill="white"/>
<path d="M202.003 129.5L205.503 123.5H213.003V145.5H198.003V134.5L202.003 129.5Z" fill="white"/>
<rect x="86" y="69.5" width="8" height="8" fill="#724D50"/>
<rect x="94" y="77.5" width="8" height="8" fill="#724D50"/>
<rect x="86" y="77.5" width="8" height="8" fill="white"/>
<rect x="78" y="77.5" width="8" height="8" fill="#724D50"/>
<rect x="126.003" y="69.5" width="8" height="8" fill="#724D50"/>
<rect x="134.003" y="77.5" width="8" height="8" fill="#724D50"/>
<rect x="126.003" y="77.5" width="8" height="8" fill="white"/>
<rect x="134.003" y="85.5" width="8" height="8" fill="#724D50"/>
<rect x="78" y="85.5" width="8" height="8" fill="#724D50"/>
<rect x="118.003" y="77.5" width="8" height="8" fill="#724D50"/>
<rect x="130.003" y="125.5" width="8" height="8" fill="#724D50"/>
<rect x="138.003" y="125.5" width="8" height="8" fill="#724D50"/>
<rect x="82" y="93.5" width="8" height="8" fill="#724D50"/>
<rect x="74" y="93.5" width="8" height="8" fill="#724D50"/>
<rect x="138.003" y="101.5" width="8" height="8" fill="#724D50"/>
<rect x="74" y="101.5" width="8" height="8" fill="#724D50"/>
<rect x="138.003" y="109.5" width="8" height="8" fill="#724D50"/>
<rect x="74" y="109.5" width="8" height="8" fill="#724D50"/>
<rect x="74" y="117.5" width="8" height="8" fill="#724D50"/>
<rect x="138.003" y="117.5" width="8" height="8" fill="#724D50"/>
<rect x="138.003" y="117.5" width="8" height="8" fill="#724D50"/>
<rect x="154.003" y="113.5" width="8" height="8" fill="#724D50"/>
<rect x="146.003" y="113.5" width="8" height="8" fill="#724D50"/>
<rect x="162.003" y="113.5" width="8" height="8" fill="#724D50"/>
<rect x="170.003" y="121.5" width="8" height="8" fill="#724D50"/>
<rect x="178.003" y="129.5" width="8" height="8" fill="#724D50"/>
<rect x="94" y="138.5" width="8" height="8" fill="#724D50"/>
<rect x="102.003" y="138.5" width="8" height="8" fill="#724D50"/>
<rect x="126.003" y="133.5" width="8" height="8" fill="#724D50"/>
<rect x="178.003" y="137.5" width="8" height="8" fill="#724D50"/>
<rect x="186.003" y="137.5" width="8" height="8" fill="#724D50"/>
<rect x="194.003" y="129.5" width="8" height="8" fill="#724D50"/>
<rect x="202.003" y="121.5" width="8" height="8" fill="#724D50"/>
<rect x="210.003" y="121.5" width="8" height="8" fill="#724D50"/>
<rect x="206.003" y="137.5" width="8" height="8" fill="#724D50"/>
<rect x="210.003" y="129.5" width="8" height="8" fill="#724D50"/>
<rect x="198.003" y="145.5" width="8" height="8" fill="#724D50"/>
<rect x="186.003" y="153.5" width="16" height="8" fill="#724D50"/>
<rect x="180.003" y="161.5" width="8" height="8" fill="#724D50"/>
<rect x="158.892" y="150.278" width="8.88889" height="8.88889" transform="rotate(-180 158.892 150.278)" fill="#724D50"/>
<rect x="158.892" y="141.389" width="8.88889" height="8.88889" transform="rotate(-180 158.892 141.389)" fill="#724D50"/>
<rect x="167.781" y="141.389" width="8.88889" height="8.88889" transform="rotate(-180 167.781 141.389)" fill="white"/>
<rect x="167.781" y="150.278" width="8.88889" height="8.88889" transform="rotate(-180 167.781 150.278)" fill="#724D50"/>
<rect x="98" y="140.5" width="8" height="13" fill="#724D50"/>
<rect x="98" y="153.5" width="8" height="8" fill="#724D50"/>
<rect x="102.003" y="161.5" width="8" height="8" fill="#724D50"/>
<rect x="178.003" y="153.5" width="10" height="8" fill="#724D50"/>
<rect x="174.003" y="161.5" width="8" height="8" fill="#724D50"/>
<rect x="174.003" y="169.5" width="8" height="8" fill="#724D50"/>
<rect x="174.003" y="177.5" width="8" height="8" fill="#724D50"/>
<rect x="166.003" y="177.5" width="8" height="8" fill="#724D50"/>
<rect x="166.003" y="185.5" width="8" height="8" fill="#724D50"/>
<rect x="150.003" y="177.5" width="8" height="8" fill="#724D50"/>
<rect x="142.003" y="185.5" width="8" height="8" fill="#724D50"/>
<rect x="126.003" y="177.5" width="8" height="8" fill="#724D50"/>
<rect x="118.003" y="185.5" width="8" height="8" fill="#724D50"/>
<rect x="118.003" y="193.5" width="56" height="6" fill="#724D50"/>
<rect x="142.003" y="177.5" width="8" height="8" fill="#724D50"/>
<rect x="110.003" y="161.5" width="8" height="8" fill="#724D50"/>
<rect x="118.003" y="169.5" width="8" height="8" fill="#724D50"/>
<rect x="110.003" y="169.5" width="8" height="8" fill="#724D50"/>
<rect x="74" y="117.5" width="8" height="8" fill="#724D50"/>
<rect x="79" y="125.5" width="11" height="8" fill="#724D50"/>
<rect x="104.003" y="85.5" width="10" height="8" fill="#724D50"/>
<rect x="114.003" y="85.5" width="8" height="8" fill="#724D50"/>
<rect x="130.063" y="93.5" width="8" height="8" fill="#724D50"/>
<rect x="138.003" y="93.5" width="8" height="8" fill="#724D50"/>
<rect x="122.003" y="101.5" width="8" height="8" fill="#724D50"/>
<rect x="130.003" y="101.5" width="8" height="8" fill="#724D50"/>
<rect x="82" y="101.5" width="8" height="8" fill="#724D50"/>
<rect x="90" y="101.5" width="8" height="8" fill="#724D50"/>
<rect x="98" y="117.5" width="8" height="8" fill="#724D50"/>
<rect x="114.003" y="117.5" width="8" height="8" fill="#724D50"/>
<rect x="106.003" y="109.5" width="8" height="8" fill="#724D50"/>
<rect x="96" y="85.5" width="8" height="8" fill="#724D50"/>
<rect x="86" y="133.5" width="8" height="8" fill="#724D50"/>
<rect x="168.403" y="77.9004" width="11.2" height="12.6" fill="black"/>
<rect x="172.603" y="69.5" width="2.8" height="8.4" fill="black"/>
<rect x="168.403" y="66.7002" width="11.2" height="5.6" fill="black"/>
<rect x="165.603" y="79.3003" width="16.8" height="8.4" fill="black"/>
<rect x="164.203" y="79.3003" width="18.2" height="1.4" fill="black"/>
<rect x="164.203" y="68.1001" width="18.2" height="7" fill="black"/>
<rect x="161.403" y="70.9004" width="2.8" height="1.4" fill="black"/>
<rect x="182.403" y="70.9004" width="4.2" height="1.4" fill="black"/>
<rect x="182.403" y="76.5" width="4.2" height="2.8" fill="black"/>
<rect x="161.403" y="76.5" width="2.8" height="2.8" fill="black"/>
<rect x="165.603" y="90.5" width="2.8" height="2.8" fill="black"/>
<rect x="179.603" y="90.5" width="2.8" height="2.8" fill="black"/>
<rect x="168.403" y="100.3" width="11.2" height="2.8" fill="black"/>
<rect x="179.603" y="96.1001" width="2.8" height="4.2" fill="black"/>
<rect x="181.003" y="93.3003" width="4.2" height="4.2" fill="black"/>
<rect x="183.803" y="91.9004" width="2.8" height="4.2" fill="black"/>
<rect x="161.403" y="91.9004" width="2.8" height="4.2" fill="black"/>
<rect x="158.603" y="87.7002" width="4.2" height="7" fill="black"/>
<rect x="155.803" y="79.3003" width="2.8" height="9.8" fill="black"/>
<rect x="158.603" y="75.1001" width="29.4" height="8.4" fill="black"/>
<rect x="161.403" y="72.3003" width="1.4" height="8.4" fill="black"/>
<rect x="183.803" y="87.7002" width="5.6" height="7" fill="black"/>
<rect x="189.403" y="79.3003" width="2.8" height="9.8" fill="black"/>
<rect x="186.603" y="75.1001" width="2.8" height="8.4" fill="black"/>
<rect x="185.203" y="72.3003" width="1.4" height="8.4" fill="black"/>
<rect x="162.803" y="93.3003" width="4.2" height="4.2" fill="black"/>
<rect x="164.203" y="96.1001" width="4.2" height="4.2" fill="black"/>
<rect x="165.438" y="69.9126" width="4.28235" height="8.56471" fill="white"/>
<rect x="162.226" y="72.0537" width="10.7059" height="5.35294" fill="white"/>
<rect x="165.438" y="73.1245" width="7.49412" height="5.35294" fill="white"/>
<rect x="165.438" y="78.4766" width="3.21176" height="1.07059" fill="white"/>
<rect width="4.28235" height="8.56471" transform="matrix(-1 0 0 1 182.568 69.9126)" fill="white"/>
<rect width="10.7059" height="5.35294" transform="matrix(-1 0 0 1 185.779 72.0537)" fill="white"/>
<rect width="7.49412" height="5.35294" transform="matrix(-1 0 0 1 182.568 73.1245)" fill="white"/>
<rect width="3.21176" height="1.07059" transform="matrix(-1 0 0 1 182.568 78.4766)" fill="white"/>
<rect x="162.226" y="79.5469" width="3.21176" height="11.7765" fill="white"/>
<rect x="159.702" y="82.2998" width="6.5" height="7.8" fill="white"/>
<rect x="163.603" y="87.5" width="2.6" height="5.2" fill="white"/>
<rect x="164.367" y="87.041" width="4.28235" height="3.21176" fill="white"/>
<rect x="157.944" y="83.8291" width="4.28235" height="4.28235" fill="white"/>
<rect width="3.21176" height="11.7765" transform="matrix(-1 0 0 1 185.78 79.5469)" fill="white"/>
<rect width="6.5" height="7.8" transform="matrix(-1 0 0 1 188.303 82.2998)" fill="white"/>
<rect width="2.6" height="5.2" transform="matrix(-1 0 0 1 184.403 87.5)" fill="white"/>
<rect width="4.28235" height="3.21176" transform="matrix(-1 0 0 1 183.638 87.041)" fill="white"/>
<rect width="4.28235" height="4.28235" transform="matrix(-1 0 0 1 190.062 83.8291)" fill="white"/>
<rect x="168.403" y="90.5" width="11.2" height="9.8" fill="white"/>
<rect x="167.003" y="93.3003" width="14" height="2.8" fill="white"/>
<rect x="67.7805" y="142.278" width="8.88889" height="8.88889" transform="rotate(-180 67.7805 142.278)" fill="#724D50"/>
<rect x="67.7805" y="133.389" width="8.88889" height="8.88889" transform="rotate(-180 67.7805 133.389)" fill="white"/>
<rect x="58.8916" y="142.278" width="8.88889" height="8.88889" transform="rotate(-180 58.8916 142.278)" fill="#724D50"/>
<rect x="58.8916" y="133.389" width="8.88889" height="8.88889" transform="rotate(-180 58.8916 133.389)" fill="#724D50"/>
<path fill-rule="evenodd" clip-rule="evenodd" d="M57 199.5L219.003 199.5V207.5L57 207.5V199.5Z" fill="white"/>
</svg>
