<svg width="279" height="266" viewBox="0 0 279 266" fill="none" xmlns="http://www.w3.org/2000/svg">
<rect x="126" y="185.5" width="47" height="8" fill="white"/>
<rect x="134" y="177.5" width="35" height="8" fill="white"/>
<path fill-rule="evenodd" clip-rule="evenodd" d="M82.0029 81.5H96.0029V93.5H120V81.5H138V93.5H140V121.5H170V127.5H178V143.5H194V133.5H202V128.5H210V138.5H206V145.5H202V155.5H178V177.5H170H164H126V169.5H116V166.5H104V141.5H95.0029V133.5H86.0029V129.5H82.0029V81.5Z" fill="#DFA46D"/>
<rect x="90.0029" y="117.5" width="40" height="21" fill="white"/>
<rect x="90.0029" y="117.5" width="40" height="21" fill="white"/>
<path d="M202 129.5L205.503 123.5H213V145.5H198V134.5L202 129.5Z" fill="white"/>
<rect x="86.0029" y="69.5" width="8" height="8" fill="#724D50"/>
<rect x="94.0029" y="77.5" width="8" height="8" fill="#724D50"/>
<rect x="86.0029" y="77.5" width="8" height="8" fill="white"/>
<rect x="78.0029" y="77.5" width="8" height="8" fill="#724D50"/>
<rect x="126" y="69.5" width="8" height="8" fill="#724D50"/>
<rect x="134" y="77.5" width="8" height="8" fill="#724D50"/>
<rect x="126" y="77.5" width="8" height="8" fill="white"/>
<rect x="134" y="85.5" width="8" height="8" fill="#724D50"/>
<rect x="78.0029" y="85.5" width="8" height="8" fill="#724D50"/>
<rect x="118" y="77.5" width="8" height="8" fill="#724D50"/>
<rect x="130" y="125.5" width="8" height="8" fill="#724D50"/>
<rect x="138" y="125.5" width="8" height="8" fill="#724D50"/>
<rect x="82.0029" y="93.5" width="8" height="8" fill="#724D50"/>
<rect x="74.0029" y="93.5" width="8" height="8" fill="#724D50"/>
<rect x="138" y="101.5" width="8" height="8" fill="#724D50"/>
<rect x="74.0029" y="101.5" width="8" height="8" fill="#724D50"/>
<rect x="138" y="109.5" width="8" height="8" fill="#724D50"/>
<rect x="74.0029" y="109.5" width="8" height="8" fill="#724D50"/>
<rect x="74.0029" y="117.5" width="8" height="8" fill="#724D50"/>
<rect x="138" y="117.5" width="8" height="8" fill="#724D50"/>
<rect x="138" y="117.5" width="8" height="8" fill="#724D50"/>
<rect x="154" y="113.5" width="8" height="8" fill="#724D50"/>
<rect x="146" y="113.5" width="8" height="8" fill="#724D50"/>
<rect x="162" y="113.5" width="8" height="8" fill="#724D50"/>
<rect x="170" y="121.5" width="8" height="8" fill="#724D50"/>
<rect x="178" y="129.5" width="8" height="8" fill="#724D50"/>
<rect x="94.0029" y="138.5" width="8" height="8" fill="#724D50"/>
<rect x="102" y="138.5" width="8" height="8" fill="#724D50"/>
<rect x="126" y="133.5" width="8" height="8" fill="#724D50"/>
<rect x="178" y="137.5" width="8" height="8" fill="#724D50"/>
<rect x="186" y="137.5" width="8" height="8" fill="#724D50"/>
<rect x="194" y="129.5" width="8" height="8" fill="#724D50"/>
<rect x="202" y="121.5" width="8" height="8" fill="#724D50"/>
<rect x="210" y="121.5" width="8" height="8" fill="#724D50"/>
<rect x="206" y="137.5" width="8" height="8" fill="#724D50"/>
<rect x="210" y="129.5" width="8" height="8" fill="#724D50"/>
<rect x="198" y="145.5" width="8" height="8" fill="#724D50"/>
<rect x="186" y="153.5" width="16" height="8" fill="#724D50"/>
<rect x="180" y="161.5" width="8" height="8" fill="#724D50"/>
<rect x="161.892" y="101.278" width="8.88889" height="8.88889" transform="rotate(-180 161.892 101.278)" fill="#724D50"/>
<rect x="161.892" y="92.3892" width="8.88889" height="8.88889" transform="rotate(-180 161.892 92.3892)" fill="#724D50"/>
<rect x="170.781" y="92.3892" width="8.88889" height="8.88889" transform="rotate(-180 170.781 92.3892)" fill="white"/>
<rect x="170.781" y="101.278" width="8.88889" height="8.88889" transform="rotate(-180 170.781 101.278)" fill="#724D50"/>
<rect x="98.0029" y="140.5" width="8" height="13" fill="#724D50"/>
<rect x="98.0029" y="153.5" width="8" height="8" fill="#724D50"/>
<rect x="102" y="161.5" width="8" height="8" fill="#724D50"/>
<rect x="178" y="153.5" width="10" height="8" fill="#724D50"/>
<rect x="174" y="161.5" width="8" height="8" fill="#724D50"/>
<rect x="174" y="169.5" width="8" height="8" fill="#724D50"/>
<rect x="174" y="177.5" width="8" height="8" fill="#724D50"/>
<rect x="166" y="177.5" width="8" height="8" fill="#724D50"/>
<rect x="166" y="185.5" width="8" height="8" fill="#724D50"/>
<rect x="150" y="177.5" width="8" height="8" fill="#724D50"/>
<rect x="142" y="185.5" width="8" height="8" fill="#724D50"/>
<rect x="126" y="177.5" width="8" height="8" fill="#724D50"/>
<rect x="118" y="185.5" width="8" height="8" fill="#724D50"/>
<rect x="118" y="193.5" width="56" height="6" fill="#724D50"/>
<rect x="142" y="177.5" width="8" height="8" fill="#724D50"/>
<rect x="110" y="161.5" width="8" height="8" fill="#724D50"/>
<rect x="118" y="169.5" width="8" height="8" fill="#724D50"/>
<rect x="110" y="169.5" width="8" height="8" fill="#724D50"/>
<rect x="74.0029" y="117.5" width="8" height="8" fill="#724D50"/>
<rect x="79.0029" y="125.5" width="11" height="8" fill="#724D50"/>
<rect x="104" y="85.5" width="10" height="8" fill="#724D50"/>
<rect x="114" y="85.5" width="8" height="8" fill="#724D50"/>
<rect x="130.063" y="93.5" width="8" height="8" fill="#724D50"/>
<rect x="138" y="93.5" width="8" height="8" fill="#724D50"/>
<rect x="122" y="101.5" width="8" height="8" fill="#724D50"/>
<rect x="130" y="101.5" width="8" height="8" fill="#724D50"/>
<rect x="82.0029" y="101.5" width="8" height="8" fill="#724D50"/>
<rect x="90.0029" y="101.5" width="8" height="8" fill="#724D50"/>
<rect x="98.0029" y="117.5" width="8" height="8" fill="#724D50"/>
<rect x="114" y="117.5" width="8" height="8" fill="#724D50"/>
<rect x="106" y="109.5" width="8" height="8" fill="#724D50"/>
<rect x="96.0029" y="85.5" width="8" height="8" fill="#724D50"/>
<rect x="86.0029" y="133.5" width="8" height="8" fill="#724D50"/>
<rect x="40.4028" y="100.9" width="11.2" height="12.6" fill="black"/>
<rect x="44.603" y="92.5" width="2.8" height="8.4" fill="black"/>
<rect x="40.4028" y="89.7002" width="11.2" height="5.6" fill="black"/>
<rect x="37.603" y="102.3" width="16.8" height="8.4" fill="black"/>
<rect x="36.2029" y="102.3" width="18.2" height="1.4" fill="black"/>
<rect x="36.2029" y="91.1001" width="18.2" height="7" fill="black"/>
<rect x="33.4028" y="93.9004" width="2.8" height="1.4" fill="black"/>
<rect x="54.4028" y="93.9004" width="4.2" height="1.4" fill="black"/>
<rect x="54.4028" y="99.5" width="4.2" height="2.8" fill="black"/>
<rect x="33.4028" y="99.5" width="2.8" height="2.8" fill="black"/>
<rect x="37.603" y="113.5" width="2.8" height="2.8" fill="black"/>
<rect x="51.603" y="113.5" width="2.8" height="2.8" fill="black"/>
<rect x="40.4028" y="123.3" width="11.2" height="2.8" fill="black"/>
<rect x="51.603" y="119.1" width="2.8" height="4.2" fill="black"/>
<rect x="53.0029" y="116.3" width="4.2" height="4.2" fill="black"/>
<rect x="55.803" y="114.9" width="2.8" height="4.2" fill="black"/>
<rect x="33.4028" y="114.9" width="2.8" height="4.2" fill="black"/>
<rect x="30.603" y="110.7" width="4.2" height="7" fill="black"/>
<rect x="27.803" y="102.3" width="2.8" height="9.8" fill="black"/>
<rect x="30.603" y="98.1001" width="29.4" height="8.4" fill="black"/>
<rect x="33.4028" y="95.3003" width="1.4" height="8.4" fill="black"/>
<rect x="55.803" y="110.7" width="5.6" height="7" fill="black"/>
<rect x="61.4028" y="102.3" width="2.8" height="9.8" fill="black"/>
<rect x="58.603" y="98.1001" width="2.8" height="8.4" fill="black"/>
<rect x="57.2029" y="95.3003" width="1.4" height="8.4" fill="black"/>
<rect x="34.803" y="116.3" width="4.2" height="4.2" fill="black"/>
<rect x="36.2029" y="119.1" width="4.2" height="4.2" fill="black"/>
<rect x="37.4377" y="92.9126" width="4.28235" height="8.56471" fill="white"/>
<rect x="34.2263" y="95.0537" width="10.7059" height="5.35294" fill="white"/>
<rect x="37.4377" y="96.1245" width="7.49412" height="5.35294" fill="white"/>
<rect x="37.4377" y="101.477" width="3.21176" height="1.07059" fill="white"/>
<rect width="4.28235" height="8.56471" transform="matrix(-1 0 0 1 54.5681 92.9126)" fill="white"/>
<rect width="10.7059" height="5.35294" transform="matrix(-1 0 0 1 57.7795 95.0537)" fill="white"/>
<rect width="7.49412" height="5.35294" transform="matrix(-1 0 0 1 54.5681 96.1245)" fill="white"/>
<rect width="3.21176" height="1.07059" transform="matrix(-1 0 0 1 54.5681 101.477)" fill="white"/>
<rect x="34.2261" y="102.547" width="3.21176" height="11.7765" fill="white"/>
<rect x="31.7026" y="105.3" width="6.5" height="7.8" fill="white"/>
<rect x="35.6028" y="110.5" width="2.6" height="5.2" fill="white"/>
<rect x="36.3674" y="110.041" width="4.28235" height="3.21176" fill="white"/>
<rect x="29.9438" y="106.829" width="4.28235" height="4.28235" fill="white"/>
<rect width="3.21176" height="11.7765" transform="matrix(-1 0 0 1 57.7798 102.547)" fill="white"/>
<rect width="6.5" height="7.8" transform="matrix(-1 0 0 1 60.3032 105.3)" fill="white"/>
<rect width="2.6" height="5.2" transform="matrix(-1 0 0 1 56.4031 110.5)" fill="white"/>
<rect width="4.28235" height="3.21176" transform="matrix(-1 0 0 1 55.6384 110.041)" fill="white"/>
<rect width="4.28235" height="4.28235" transform="matrix(-1 0 0 1 62.062 106.829)" fill="white"/>
<rect x="40.4028" y="113.5" width="11.2" height="9.8" fill="white"/>
<rect x="39.0029" y="116.3" width="14" height="2.8" fill="white"/>
<rect x="87.7808" y="162.278" width="8.88889" height="8.88889" transform="rotate(-180 87.7808 162.278)" fill="#724D50"/>
<rect x="87.7808" y="153.389" width="8.88889" height="8.88889" transform="rotate(-180 87.7808 153.389)" fill="white"/>
<rect x="78.8918" y="162.278" width="8.88889" height="8.88889" transform="rotate(-180 78.8918 162.278)" fill="#724D50"/>
<rect x="78.8918" y="153.389" width="8.88889" height="8.88889" transform="rotate(-180 78.8918 153.389)" fill="#724D50"/>
<path fill-rule="evenodd" clip-rule="evenodd" d="M57.0029 199.5L219 199.5V207.5L57.0029 207.5V199.5Z" fill="white"/>
</svg>
