<svg width="278" height="266" viewBox="0 0 278 266" fill="none" xmlns="http://www.w3.org/2000/svg">
<rect x="114" y="193.5" width="47" height="6" fill="white"/>
<rect x="122" y="185.5" width="35" height="8" fill="white"/>
<path fill-rule="evenodd" clip-rule="evenodd" d="M70 98.5H84V110.5H108V98.5H126V110.5H128V129.5H158V135.5H166V151.5H182V141.5H190V136.5H198V146.5H194V153.5H190V163.5H166V185.5H158H152H114V177.5H104V174.5H92V158.5H83V146.5H70V98.5Z" fill="#DFA46D"/>
<rect x="78" y="134.5" width="40" height="21" fill="white"/>
<path d="M190 137.5L193.883 131.5H201V153.5H186V142.5L190 137.5Z" fill="white"/>
<rect x="74" y="86.5" width="8" height="8" fill="#724D50"/>
<rect x="82" y="94.5" width="8" height="8" fill="#724D50"/>
<rect x="74" y="94.5" width="8" height="8" fill="white"/>
<rect x="66" y="94.5" width="8" height="8" fill="#724D50"/>
<rect x="114" y="86.5" width="8" height="8" fill="#724D50"/>
<rect x="122" y="94.5" width="8" height="8" fill="#724D50"/>
<rect x="114" y="94.5" width="8" height="8" fill="white"/>
<rect x="122" y="102.5" width="8" height="8" fill="#724D50"/>
<rect x="66" y="102.5" width="8" height="8" fill="#724D50"/>
<rect x="106" y="94.5" width="8" height="8" fill="#724D50"/>
<rect x="118" y="142.5" width="8" height="8" fill="#724D50"/>
<rect x="126" y="142.5" width="8" height="8" fill="#724D50"/>
<rect x="70" y="110.5" width="8" height="8" fill="#724D50"/>
<rect x="62" y="110.5" width="8" height="8" fill="#724D50"/>
<rect x="126" y="118.5" width="8" height="8" fill="#724D50"/>
<rect x="62" y="118.5" width="8" height="8" fill="#724D50"/>
<rect x="126" y="126.5" width="8" height="8" fill="#724D50"/>
<rect x="62" y="126.5" width="8" height="8" fill="#724D50"/>
<rect x="62" y="125.5" width="8" height="8" fill="#724D50"/>
<rect x="126" y="125.5" width="8" height="8" fill="#724D50"/>
<rect x="126" y="134.5" width="8" height="8" fill="#724D50"/>
<rect x="142" y="121.5" width="8" height="8" fill="#724D50"/>
<rect x="134" y="121.5" width="8" height="8" fill="#724D50"/>
<rect x="150" y="121.5" width="8" height="8" fill="#724D50"/>
<rect x="158" y="129.5" width="8" height="8" fill="#724D50"/>
<rect x="166" y="137.5" width="8" height="8" fill="#724D50"/>
<rect x="78" y="155.5" width="12" height="8" fill="#724D50"/>
<rect x="90" y="155.5" width="26" height="8" fill="#724D50"/>
<rect x="114" y="150.5" width="8" height="8" fill="#724D50"/>
<rect x="166" y="145.5" width="8" height="8" fill="#724D50"/>
<rect x="174" y="145.5" width="8" height="8" fill="#724D50"/>
<rect x="182" y="137.5" width="8" height="8" fill="#724D50"/>
<rect x="190" y="129.5" width="8" height="8" fill="#724D50"/>
<rect x="198" y="129.5" width="8" height="8" fill="#724D50"/>
<rect x="194" y="145.5" width="8" height="8" fill="#724D50"/>
<rect x="198" y="137.5" width="8" height="8" fill="#724D50"/>
<rect x="186" y="153.5" width="8" height="8" fill="#724D50"/>
<rect x="174" y="161.5" width="16" height="8" fill="#724D50"/>
<rect x="168" y="169.5" width="8" height="8" fill="#724D50"/>
<rect x="84" y="157.5" width="8" height="13" fill="#724D50"/>
<rect x="88" y="169.5" width="10" height="8" fill="#724D50"/>
<rect x="166" y="161.5" width="10" height="8" fill="#724D50"/>
<rect x="162" y="169.5" width="8" height="8" fill="#724D50"/>
<rect x="162" y="177.5" width="8" height="8" fill="#724D50"/>
<rect x="162" y="185.5" width="8" height="8" fill="#724D50"/>
<rect x="154" y="185.5" width="8" height="8" fill="#724D50"/>
<rect x="154" y="185.5" width="8" height="8" fill="#724D50"/>
<rect x="138" y="185.5" width="8" height="8" fill="#724D50"/>
<rect x="130" y="185.5" width="8" height="8" fill="#724D50"/>
<rect x="114" y="185.5" width="8" height="8" fill="#724D50"/>
<rect x="106" y="185.5" width="8" height="8" fill="#724D50"/>
<rect x="106" y="193.5" width="56" height="6" fill="#724D50"/>
<rect x="130" y="185.5" width="8" height="8" fill="#724D50"/>
<rect x="98" y="169.5" width="8" height="8" fill="#724D50"/>
<rect x="106" y="177.5" width="8" height="8" fill="#724D50"/>
<rect x="98" y="177.5" width="8" height="8" fill="#724D50"/>
<rect x="62" y="134.5" width="8" height="8" fill="#724D50"/>
<rect x="67" y="142.5" width="11" height="8" fill="#724D50"/>
<rect x="92" y="102.5" width="10" height="8" fill="#724D50"/>
<rect x="102" y="102.5" width="8" height="8" fill="#724D50"/>
<rect x="118.443" y="110.5" width="8" height="8" fill="#724D50"/>
<rect x="126" y="110.5" width="8" height="8" fill="#724D50"/>
<rect x="110" y="123.5" width="8" height="5" fill="#724D50"/>
<rect x="118" y="123.5" width="8" height="5" fill="#724D50"/>
<rect x="70" y="123.5" width="8" height="5" fill="#724D50"/>
<rect x="78" y="123.5" width="8" height="5" fill="#724D50"/>
<rect x="86" y="134.5" width="8" height="5" fill="#724D50"/>
<rect x="102" y="134.5" width="8" height="5" fill="#724D50"/>
<rect x="94" y="126.5" width="8" height="8" fill="#724D50"/>
<rect x="84" y="102.5" width="8" height="8" fill="#724D50"/>
<rect x="74" y="150.5" width="8" height="8" fill="#724D50"/>
<path fill-rule="evenodd" clip-rule="evenodd" d="M165 69.5H179V72.5H177V75.5H174V72.5H165V69.5ZM171 78.5V75.5H174V78.5H171ZM171 81.5V78.5H168V81.5H165V84.5H179V81.5H171Z" fill="black"/>
<path fill-rule="evenodd" clip-rule="evenodd" d="M142 84.5H161V88.5714L158.669 88.5714V92.6429H154.597V88.5714L142 88.5714V84.5ZM150.526 96.7143V92.6429H154.597L154.597 96.7143H150.526ZM150.526 100.786V96.7143H146.454V100.786L142 100.786V104.857H161V100.786L150.526 100.786Z" fill="black"/>
<path fill-rule="evenodd" clip-rule="evenodd" d="M57 199.5L219 199.5V207.5L57 207.5V199.5Z" fill="white"/>
</svg>
