<svg width="279" height="266" viewBox="0 0 279 266" fill="none" xmlns="http://www.w3.org/2000/svg">
<rect x="114" y="185.5" width="47" height="8" fill="white"/>
<rect x="122" y="177.5" width="35" height="8" fill="white"/>
<path fill-rule="evenodd" clip-rule="evenodd" d="M103.243 84.1655L120.969 81.0376L123.054 92.855L125.024 92.5075L130.14 121.5H158V127.5H166V143.5H182V133.5H190V128.5H198V138.5H194V145.5H190V155.5H166V177.5L158 177.5H114V169.5H104V166.5H92V147.076L89.0496 147.597L86.9644 135.78L74.1622 138.039L65.821 90.7689L79.608 88.3361L81.6933 100.153L105.328 95.9829L103.243 84.1655Z" fill="#DFA46D"/>
<rect x="79.9551" y="124.831" width="40" height="21" transform="rotate(-10.0073 79.9551 124.831)" fill="white"/>
<path d="M190 129.5L193.5 123.5H201V145.5H186V134.5L190 129.5Z" fill="white"/>
<rect x="67.6749" y="78.2563" width="8" height="8" transform="rotate(-10.0073 67.6749 78.2563)" fill="#724D50"/>
<rect x="76.9434" y="84.7446" width="8" height="8" transform="rotate(-10.0073 76.9434 84.7446)" fill="#724D50"/>
<rect x="69.0651" y="86.1348" width="8" height="8" transform="rotate(-10.0073 69.0651 86.1348)" fill="white"/>
<rect x="61.1868" y="87.5249" width="8" height="8" transform="rotate(-10.0073 61.1868 87.5249)" fill="#724D50"/>
<rect x="107.066" y="71.3052" width="8" height="8" transform="rotate(-10.0073 107.066 71.3052)" fill="#724D50"/>
<rect x="116.335" y="77.7935" width="8" height="8" transform="rotate(-10.0073 116.335 77.7935)" fill="#724D50"/>
<rect x="108.457" y="79.1836" width="8" height="8" transform="rotate(-10.0073 108.457 79.1836)" fill="white"/>
<rect x="117.725" y="85.6719" width="8" height="8" transform="rotate(-10.0073 117.725 85.6719)" fill="#724D50"/>
<rect x="62.5769" y="95.4028" width="8" height="8" transform="rotate(-10.0073 62.5769 95.4028)" fill="#724D50"/>
<rect x="100.578" y="80.5737" width="8" height="8" transform="rotate(-10.0073 100.578 80.5737)" fill="#724D50"/>
<rect x="120.737" y="125.758" width="8" height="8" transform="rotate(-10.0073 120.737 125.758)" fill="#724D50"/>
<rect x="128.615" y="124.368" width="8" height="8" transform="rotate(-10.0073 128.615 124.368)" fill="#724D50"/>
<rect x="67.9062" y="102.586" width="8" height="8" transform="rotate(-10.0073 67.9062 102.586)" fill="#724D50"/>
<rect x="60.028" y="103.977" width="8" height="8" transform="rotate(-10.0073 60.028 103.977)" fill="#724D50"/>
<rect x="124.444" y="100.733" width="8" height="8" transform="rotate(-10.0073 124.444 100.733)" fill="#724D50"/>
<rect x="61.4182" y="111.854" width="8" height="8" transform="rotate(-10.0073 61.4182 111.854)" fill="#724D50"/>
<rect x="125.835" y="108.611" width="8" height="8" transform="rotate(-10.0073 125.835 108.611)" fill="#724D50"/>
<rect x="62.8083" y="119.733" width="8" height="8" transform="rotate(-10.0073 62.8083 119.733)" fill="#724D50"/>
<rect x="127.225" y="116.49" width="8" height="8" transform="rotate(-10.0073 127.225 116.49)" fill="#724D50"/>
<rect x="142" y="113.5" width="8" height="8" fill="#724D50"/>
<rect x="134" y="113.5" width="8" height="8" fill="#724D50"/>
<rect x="150" y="113.5" width="8" height="8" fill="#724D50"/>
<rect x="158" y="121.5" width="8" height="8" fill="#724D50"/>
<rect x="166" y="129.5" width="8" height="8" fill="#724D50"/>
<rect x="88.5283" y="144.643" width="8" height="8" transform="rotate(-10.0073 88.5283 144.643)" fill="#724D50"/>
<rect x="96.4066" y="143.252" width="26.9681" height="8" transform="rotate(-10.0073 96.4066 143.252)" fill="#724D50"/>
<rect x="118.188" y="134.332" width="8" height="8" transform="rotate(-10.0073 118.188 134.332)" fill="#724D50"/>
<rect x="166" y="137.5" width="8" height="8" fill="#724D50"/>
<rect x="174" y="137.5" width="8" height="8" fill="#724D50"/>
<rect x="182" y="129.5" width="8" height="8" fill="#724D50"/>
<rect x="190" y="121.5" width="8" height="8" fill="#724D50"/>
<rect x="198" y="121.5" width="8" height="8" fill="#724D50"/>
<rect x="194" y="137.5" width="8" height="8" fill="#724D50"/>
<rect x="198" y="129.5" width="8" height="8" fill="#724D50"/>
<rect x="186" y="145.5" width="8" height="8" fill="#724D50"/>
<rect x="174" y="153.5" width="16" height="8" fill="#724D50"/>
<rect x="168" y="161.5" width="8" height="8" fill="#724D50"/>
<rect width="8.88889" height="8.88889" transform="matrix(1 -8.74228e-08 -8.74228e-08 -1 126.15 169.5)" fill="#724D50"/>
<rect width="8.88889" height="8.88889" transform="matrix(1 -8.74228e-08 -8.74228e-08 -1 126.15 160.611)" fill="#724D50"/>
<rect width="8.88889" height="8.88889" transform="matrix(1 -8.74228e-08 -8.74228e-08 -1 117.261 160.611)" fill="white"/>
<rect width="8.88889" height="8.88889" transform="matrix(1 -8.74228e-08 -8.74228e-08 -1 117.261 169.5)" fill="#724D50"/>
<rect x="80.3547" y="169.198" width="8.88889" height="8.88889" transform="rotate(-180 80.3547 169.198)" fill="#724D50"/>
<rect x="80.3547" y="160.309" width="8.88889" height="8.88889" transform="rotate(-180 80.3547 160.309)" fill="white"/>
<rect x="71.4658" y="169.198" width="8.88889" height="8.88889" transform="rotate(-180 71.4658 169.198)" fill="#724D50"/>
<rect x="71.4658" y="160.309" width="8.88889" height="8.88889" transform="rotate(-180 71.4658 160.309)" fill="#724D50"/>
<rect x="86" y="145.511" width="8" height="7.98857" fill="#724D50"/>
<rect x="86" y="153.5" width="8" height="8" fill="#724D50"/>
<rect x="90" y="161.5" width="8" height="8" fill="#724D50"/>
<rect x="166" y="153.5" width="10" height="8" fill="#724D50"/>
<rect x="162" y="161.5" width="8" height="8" fill="#724D50"/>
<rect x="162" y="169.5" width="8" height="8" fill="#724D50"/>
<rect x="162" y="177.5" width="8" height="8" fill="#724D50"/>
<rect x="154" y="177.5" width="8" height="8" fill="#724D50"/>
<rect x="154" y="185.5" width="8" height="8" fill="#724D50"/>
<rect x="138" y="177.5" width="8" height="8" fill="#724D50"/>
<rect x="130" y="185.5" width="8" height="8" fill="#724D50"/>
<rect x="114" y="177.5" width="8" height="8" fill="#724D50"/>
<rect x="106" y="185.5" width="8" height="8" fill="#724D50"/>
<rect x="106" y="193.5" width="56" height="6" fill="#724D50"/>
<rect x="130" y="177.5" width="8" height="8" fill="#724D50"/>
<rect x="98" y="161.5" width="8" height="8" fill="#724D50"/>
<rect x="106" y="169.5" width="8" height="8" fill="#724D50"/>
<rect x="98" y="169.5" width="8" height="8" fill="#724D50"/>
<rect x="64.1986" y="127.611" width="8" height="8" transform="rotate(-10.0073 64.1986 127.611)" fill="#724D50"/>
<rect x="70.5127" y="134.621" width="11" height="8" transform="rotate(-10.0073 70.5127 134.621)" fill="#724D50"/>
<rect x="88.1814" y="90.8848" width="10" height="8" transform="rotate(-10.0073 88.1814 90.8848)" fill="#724D50"/>
<rect x="98.0293" y="89.1475" width="8" height="8" transform="rotate(-10.0073 98.0293 89.1475)" fill="#724D50"/>
<rect x="115.235" y="94.2349" width="8" height="8" transform="rotate(-10.0073 115.235 94.2349)" fill="#724D50"/>
<rect x="123.054" y="92.855" width="8" height="8" transform="rotate(-10.0073 123.054 92.855)" fill="#724D50"/>
<rect x="109.383" y="107.453" width="8" height="4" transform="rotate(-10.0073 109.383 107.453)" fill="#724D50"/>
<rect x="117.261" y="106.062" width="8" height="4" transform="rotate(-10.0073 117.261 106.062)" fill="#724D50"/>
<rect x="69.9916" y="114.404" width="8" height="4" transform="rotate(-10.0073 69.9916 114.404)" fill="#724D50"/>
<rect x="77.8699" y="113.014" width="8" height="4" transform="rotate(-10.0073 77.8699 113.014)" fill="#724D50"/>
<rect x="87.8334" y="123.441" width="8" height="8" transform="rotate(-10.0073 87.8334 123.441)" fill="#724D50"/>
<rect x="103.59" y="120.66" width="8" height="8" transform="rotate(-10.0073 103.59 120.66)" fill="#724D50"/>
<rect x="94.3215" y="114.172" width="8" height="8" transform="rotate(-10.0073 94.3215 114.172)" fill="#724D50"/>
<rect x="80.3031" y="92.2754" width="8" height="8" transform="rotate(-10.0073 80.3031 92.2754)" fill="#724D50"/>
<rect x="79.7811" y="141.109" width="8" height="8" transform="rotate(-10.0073 79.7811 141.109)" fill="#724D50"/>
<path fill-rule="evenodd" clip-rule="evenodd" d="M57 199.5L219 199.5V207.5L57 207.5V199.5Z" fill="white"/>
</svg>
