<svg width="278" height="266" viewBox="0 0 278 266" fill="none" xmlns="http://www.w3.org/2000/svg">
<rect x="114" y="193.5" width="47" height="6" fill="white"/>
<rect x="122" y="185.5" width="35" height="8" fill="white"/>
<path fill-rule="evenodd" clip-rule="evenodd" d="M70 98.5H84V110.5H108V98.5H126V110.5H128V129.5H158V135.5H166V151.5H182V141.5H190V136.5H198V146.5H194V153.5H190V163.5H166V185.5H158H152H114V177.5H104V174.5H92V158.5H83V146.5H70V98.5Z" fill="#DFA46D"/>
<rect x="78" y="134.5" width="40" height="21" fill="white"/>
<path d="M190 137.5L193.883 131.5H201V153.5H186V142.5L190 137.5Z" fill="white"/>
<rect x="74" y="86.5" width="8" height="8" fill="#724D50"/>
<rect x="82" y="94.5" width="8" height="8" fill="#724D50"/>
<rect x="74" y="94.5" width="8" height="8" fill="white"/>
<rect x="66" y="94.5" width="8" height="8" fill="#724D50"/>
<rect x="114" y="86.5" width="8" height="8" fill="#724D50"/>
<rect x="122" y="94.5" width="8" height="8" fill="#724D50"/>
<rect x="114" y="94.5" width="8" height="8" fill="white"/>
<rect x="122" y="102.5" width="8" height="8" fill="#724D50"/>
<rect x="66" y="102.5" width="8" height="8" fill="#724D50"/>
<rect x="106" y="94.5" width="8" height="8" fill="#724D50"/>
<rect x="118" y="142.5" width="8" height="8" fill="#724D50"/>
<rect x="126" y="142.5" width="8" height="8" fill="#724D50"/>
<rect x="70" y="110.5" width="8" height="8" fill="#724D50"/>
<rect x="62" y="110.5" width="8" height="8" fill="#724D50"/>
<rect x="126" y="118.5" width="8" height="8" fill="#724D50"/>
<rect x="62" y="118.5" width="8" height="8" fill="#724D50"/>
<rect x="126" y="126.5" width="8" height="8" fill="#724D50"/>
<rect x="62" y="126.5" width="8" height="8" fill="#724D50"/>
<rect x="62" y="125.5" width="8" height="8" fill="#724D50"/>
<rect x="126" y="125.5" width="8" height="8" fill="#724D50"/>
<rect x="126" y="134.5" width="8" height="8" fill="#724D50"/>
<rect x="142" y="121.5" width="8" height="8" fill="#724D50"/>
<rect x="134" y="121.5" width="8" height="8" fill="#724D50"/>
<rect x="150" y="121.5" width="8" height="8" fill="#724D50"/>
<rect x="158" y="129.5" width="8" height="8" fill="#724D50"/>
<rect x="166" y="137.5" width="8" height="8" fill="#724D50"/>
<rect x="78" y="155.5" width="12" height="8" fill="#724D50"/>
<rect x="90" y="155.5" width="26" height="8" fill="#724D50"/>
<rect x="114" y="150.5" width="8" height="8" fill="#724D50"/>
<rect x="166" y="145.5" width="8" height="8" fill="#724D50"/>
<rect x="174" y="145.5" width="8" height="8" fill="#724D50"/>
<rect x="182" y="137.5" width="8" height="8" fill="#724D50"/>
<rect x="190" y="129.5" width="8" height="8" fill="#724D50"/>
<rect x="198" y="129.5" width="8" height="8" fill="#724D50"/>
<rect x="194" y="145.5" width="8" height="8" fill="#724D50"/>
<rect x="198" y="137.5" width="8" height="8" fill="#724D50"/>
<rect x="186" y="153.5" width="8" height="8" fill="#724D50"/>
<rect x="174" y="161.5" width="16" height="8" fill="#724D50"/>
<rect x="168" y="169.5" width="8" height="8" fill="#724D50"/>
<rect x="84" y="157.5" width="8" height="13" fill="#724D50"/>
<rect x="88" y="169.5" width="10" height="8" fill="#724D50"/>
<rect x="166" y="161.5" width="10" height="8" fill="#724D50"/>
<rect x="162" y="169.5" width="8" height="8" fill="#724D50"/>
<rect x="162" y="177.5" width="8" height="8" fill="#724D50"/>
<rect x="162" y="185.5" width="8" height="8" fill="#724D50"/>
<rect x="154" y="185.5" width="8" height="8" fill="#724D50"/>
<rect x="154" y="185.5" width="8" height="8" fill="#724D50"/>
<rect x="138" y="185.5" width="8" height="8" fill="#724D50"/>
<rect x="130" y="185.5" width="8" height="8" fill="#724D50"/>
<rect x="114" y="185.5" width="8" height="8" fill="#724D50"/>
<rect x="106" y="185.5" width="8" height="8" fill="#724D50"/>
<rect x="106" y="193.5" width="56" height="6" fill="#724D50"/>
<rect x="130" y="185.5" width="8" height="8" fill="#724D50"/>
<rect x="98" y="169.5" width="8" height="8" fill="#724D50"/>
<rect x="106" y="177.5" width="8" height="8" fill="#724D50"/>
<rect x="98" y="177.5" width="8" height="8" fill="#724D50"/>
<rect x="62" y="134.5" width="8" height="8" fill="#724D50"/>
<rect x="67" y="142.5" width="11" height="8" fill="#724D50"/>
<rect x="92" y="102.5" width="10" height="8" fill="#724D50"/>
<rect x="102" y="102.5" width="8" height="8" fill="#724D50"/>
<rect x="118.443" y="110.5" width="8" height="8" fill="#724D50"/>
<rect x="126" y="110.5" width="8" height="8" fill="#724D50"/>
<rect x="110" y="123.5" width="8" height="5" fill="#724D50"/>
<rect x="118" y="123.5" width="8" height="5" fill="#724D50"/>
<rect x="70" y="123.5" width="8" height="5" fill="#724D50"/>
<rect x="78" y="123.5" width="8" height="5" fill="#724D50"/>
<rect x="86" y="134.5" width="8" height="5" fill="#724D50"/>
<rect x="102" y="134.5" width="8" height="5" fill="#724D50"/>
<rect x="94" y="126.5" width="8" height="8" fill="#724D50"/>
<rect x="84" y="102.5" width="8" height="8" fill="#724D50"/>
<rect x="74" y="150.5" width="8" height="8" fill="#724D50"/>
<path fill-rule="evenodd" clip-rule="evenodd" d="M140 86.5H154V89.5H152V92.5H149V89.5H140V86.5ZM146 95.5V92.5H149V95.5H146ZM146 98.5V95.5H143V98.5H140V101.5H154V98.5H146Z" fill="black"/>
<path fill-rule="evenodd" clip-rule="evenodd" d="M160 69.1431H179V73.2145L176.669 73.2145V77.2859H172.597V73.2145L160 73.2145V69.1431ZM168.526 81.3574V77.2859H172.597L172.597 81.3574H168.526ZM168.526 85.4288V81.3574H164.454V85.4288L160 85.4288V89.5002H179V85.4288L168.526 85.4288Z" fill="black"/>
<path fill-rule="evenodd" clip-rule="evenodd" d="M57 199.5L219 199.5V207.5L57 207.5V199.5Z" fill="white"/>
</svg>
